<?xml version="1.0" encoding="utf-8"?>
<!-- Generator: Adobe Illustrator 27.3.1, SVG Export Plug-In . SVG Version: 6.00 Build 0)  -->
<svg version="1.1" id="Layer_1" xmlns="http://www.w3.org/2000/svg" xmlns:xlink="http://www.w3.org/1999/xlink" x="0px" y="0px"
	 viewBox="0 0 2000 2000" style="enable-background:new 0 0 2000 2000;" xml:space="preserve">
<style type="text/css">
	.st0{fill:url(#SVGID_1_);}
	.st1{fill:#FFFFFF;}
</style>
<linearGradient id="SVGID_1_" gradientUnits="userSpaceOnUse" x1="476.1598" y1="67.5644" x2="1453.8593" y2="1807.8695">
	<stop  offset="9.962678e-02" style="stop-color:#5C61FF"/>
	<stop  offset="0.9759" style="stop-color:#15A8FF"/>
</linearGradient>
<rect class="st0" width="2000" height="2000"/>
<g>
	<polygon class="st1" points="1101.8,1351.6 1134.8,1406.9 1209.9,1406.5 1180.6,1351.1 	"/>
	<g>
		<path class="st1" d="M579.6,1000.3c0.8,108,42.4,206.3,110.2,280.3l-16.4,24c-75-79.6-121.3-186.5-122.2-304.1
			c-0.8-103.8,33.9-199.8,92.8-276.4l16.4,25.4C609,819.9,578.9,906.7,579.6,1000.3z"/>
		<path class="st1" d="M1003.4,1446c-72.5,0.5-141.3-16.3-202.2-46.6l26.7-18.7c53.5,24.1,112.9,37.4,175.3,36.9L1003.4,1446z"/>
		<path class="st1" d="M1448.8,993.8c0.9,119.9-44.9,233-129.1,318.4l-20.3-20c78.8-80,121.8-185.9,120.9-298.2
			c-1.8-231.8-191.8-419-423.5-417.3c-36.3,0.3-71.4,5.2-104.9,14.1L878.7,565c37.5-10.6,77.1-16.4,118-16.7
			C1244.1,546.5,1447,746.3,1448.8,993.8z"/>
	</g>
	<path class="st1" d="M890,1037.2l-79.3,73.4l-38.8,83l161.6-89L890,1037.2z M994.6,1199.6l-59.8-92.7l-178.7,149.6l-172.1,252.3
		l419.1-294.7L994.6,1199.6z M1271.6,1009.4c-8.9-46.7-37.8-81.9-99.1-86.1c-28.8-2-59.8,2.3-86.9,12.1
		c101-79.7,182.9-1.4,182.9-1.4c-36.9-136-82.7-193.1-192.8-204.2c-110.1-11.1-121.6,48.7-121.6,48.7
		c-98.8,12.5-129.9,80.1-130.8,82.3c0,0,0,0,0,0l125.5-10.5h0c0.9-0.1,1.8-0.1,2.8-0.2c0.9-0.1,1.8-0.1,2.6-0.1c0.8,0,1.5,0,2.2,0
		c2.3,0,4.6,0.2,6.8,0.5c1.2,0.1,2.3,0.3,3.4,0.5c21.3,3.6,40.1,16.9,50.5,36.6c6.4,12.1,4.3,27.1-5.4,36.8l-7.2,6.7l100.1,211.5
		l68.9-48.5l-3.8,92.5l34,71.4C1241.7,1205.8,1286.5,1087,1271.6,1009.4z M1050.1,794.2l-34.2,0.2l42.3-14.6L1050.1,794.2z"/>
	<path class="st1" d="M1171.2,1325.9L957.5,864.4c-1.1-0.1-2.2-0.1-3.3-0.1c-1.5,0-150.7,12.4-150.7,12.4l89.3,138.6l113.9,176.8
		l80.2,134.5L1171.2,1325.9z"/>
	<path class="st1" d="M910.8,773.6c-74.5,24.1-99.4,78.8-100.6,81.5l-8.3,19L641.7,625.7l161.7-134.4L910.8,773.6z"/>
</g>
</svg>
