<?xml version="1.0" encoding="utf-8"?>
<!-- Generator: Adobe Illustrator 27.3.1, SVG Export Plug-In . SVG Version: 6.00 Build 0)  -->
<svg version="1.1" id="Layer_1" xmlns="http://www.w3.org/2000/svg" xmlns:xlink="http://www.w3.org/1999/xlink" x="0px" y="0px"
	 viewBox="0 0 2000 2000" style="enable-background:new 0 0 2000 2000;" xml:space="preserve">
<style type="text/css">
	.st0{fill:url(#SVGID_1_);}
	.st1{fill:url(#SVGID_00000131350515796032046440000013629098266432466591_);}
	.st2{fill:#CCCCCC;}
	.st3{fill:#FFFFFF;}
	.st4{fill:url(#SVGID_00000032623345180349504080000018211223277298500798_);}
	.st5{fill:url(#SVGID_00000093886026194142454780000001258544280638793095_);}
	.st6{fill:url(#SVGID_00000028317064146405896560000008374416669952502717_);}
	.st7{fill:url(#SVGID_00000119077202776982761110000007409474062213912737_);}
	.st8{fill:url(#SVGID_00000039132561469275451600000009714434921891692218_);}
	.st9{fill:url(#SVGID_00000088841316279643167010000006672939294302484627_);}
	.st10{fill:url(#SVGID_00000183946968419475374360000015939257915099242165_);}
</style>
<radialGradient id="SVGID_1_" cx="655.1556" cy="527.1737" r="898.2047" gradientTransform="matrix(1.5264 0 0 0.819 0 568.2683)" gradientUnits="userSpaceOnUse">
	<stop  offset="0.105" style="stop-color:#1D2A56"/>
	<stop  offset="1" style="stop-color:#162141"/>
</radialGradient>
<rect class="st0" width="2000" height="2000"/>
<g>
	
		<linearGradient id="SVGID_00000147934266385164017780000010810586247803707297_" gradientUnits="userSpaceOnUse" x1="349.4023" y1="800.7042" x2="487.2984" y2="1160.8563">
		<stop  offset="9.962678e-02" style="stop-color:#5C61FF"/>
		<stop  offset="0.9759" style="stop-color:#15A8FF"/>
	</linearGradient>
	<polygon style="fill:url(#SVGID_00000147934266385164017780000010810586247803707297_);" points="464,1147.8 477.9,1171 
		509.4,1170.9 497.1,1147.6 	"/>
	<g>
		<path class="st2" d="M244.5,1000.1c0.3,45.4,17.8,86.7,46.3,117.8l-6.9,10.1c-31.5-33.4-51-78.4-51.4-127.8
			c-0.3-43.6,14.3-84,39-116.2l6.9,10.7C256.8,924.3,244.2,960.8,244.5,1000.1z"/>
		<path class="st2" d="M422.6,1187.5c-30.5,0.2-59.4-6.8-85-19.6l11.2-7.9c22.5,10.1,47.4,15.7,73.7,15.5L422.6,1187.5z"/>
		<path class="st2" d="M609.8,997.4c0.4,50.4-18.9,97.9-54.2,133.8l-8.5-8.4c33.1-33.6,51.2-78.1,50.8-125.3
			c-0.7-97.4-80.6-176.1-178-175.4c-15.2,0.1-30,2.2-44.1,5.9l-5.6-10.9c15.8-4.5,32.4-6.9,49.6-7
			C523.8,809.4,609.1,893.4,609.8,997.4z"/>
	</g>
	<path class="st3" d="M375,1015.6l-33.3,30.9l-16.3,34.9l67.9-37.4L375,1015.6z M419,1083.9l-25.1-39l-75.1,62.9l-72.3,106
		L422.6,1090L419,1083.9z M535.4,1003.9c-3.8-19.6-15.9-34.4-41.6-36.2c-12.1-0.8-25.1,1-36.5,5.1c42.5-33.5,76.9-0.6,76.9-0.6
		c-15.5-57.2-34.8-81.1-81-85.8c-46.3-4.7-51.1,20.5-51.1,20.5c-41.5,5.3-54.6,33.7-55,34.6c0,0,0,0,0,0l52.7-4.4h0
		c0.4,0,0.8-0.1,1.2-0.1c0.4,0,0.7,0,1.1,0c0.3,0,0.6,0,0.9,0c1,0,1.9,0.1,2.9,0.2c0.5,0.1,1,0.1,1.4,0.2
		c8.9,1.5,16.8,7.1,21.2,15.4c2.7,5.1,1.8,11.4-2.3,15.5l-3,2.8l42.1,88.9l29-20.4l-1.6,38.9l14.3,30
		C522.8,1086.5,541.6,1036.6,535.4,1003.9z M442.2,913.5l-14.4,0.1l17.8-6.1L442.2,913.5z"/>
	
		<linearGradient id="SVGID_00000048487362610196969050000002193234051192836770_" gradientUnits="userSpaceOnUse" x1="326.6171" y1="809.4283" x2="464.5132" y2="1169.5804">
		<stop  offset="9.962678e-02" style="stop-color:#5C61FF"/>
		<stop  offset="0.9759" style="stop-color:#15A8FF"/>
	</linearGradient>
	<path style="fill:url(#SVGID_00000048487362610196969050000002193234051192836770_);" d="M493.2,1137l-89.8-194
		c-0.5,0-0.9-0.1-1.4,0c-0.6,0-63.4,5.2-63.4,5.2l37.5,58.3l47.9,74.3l33.7,56.5L493.2,1137z"/>
	
		<linearGradient id="SVGID_00000130623561005998289450000006860615473118068101_" gradientUnits="userSpaceOnUse" x1="305.7613" y1="817.4136" x2="443.6574" y2="1177.5658">
		<stop  offset="9.962678e-02" style="stop-color:#5C61FF"/>
		<stop  offset="0.9759" style="stop-color:#15A8FF"/>
	</linearGradient>
	<path style="fill:url(#SVGID_00000130623561005998289450000006860615473118068101_);" d="M383.7,904.8
		c-31.3,10.1-41.8,33.1-42.3,34.3l-3.5,8l-67.3-104.4l68-56.5L383.7,904.8z"/>
	
		<linearGradient id="SVGID_00000146472378326032139070000011099690681880049282_" gradientUnits="userSpaceOnUse" x1="726.3183" y1="1047.0543" x2="726.3183" y2="956.1472">
		<stop  offset="9.962678e-02" style="stop-color:#5C61FF"/>
		<stop  offset="0.9759" style="stop-color:#15A8FF"/>
	</linearGradient>
	<path style="fill:url(#SVGID_00000146472378326032139070000011099690681880049282_);" d="M793.2,1058.3h-54.8
		c-4.6,1-9.6,1.7-14.6,1.7c-35.5,0-64.4-28.8-64.4-64.4c0-35.5,28.8-64.4,64.4-64.4s64.4,28.8,64.4,64.4c0,21.9-11.1,41.4-27.8,52.9
		l17.3-6.5h15.5V1058.3z M723.8,1039.7c24.9,0,44.1-19.2,44.1-44.1c0-24.9-19.2-44.1-44.1-44.1c-24.7,0-44.1,19.2-44.1,44.1
		C679.7,1020.5,699.2,1039.7,723.8,1039.7z"/>
	
		<linearGradient id="SVGID_00000008869560713059005010000014699434497585598142_" gradientUnits="userSpaceOnUse" x1="860.5787" y1="1047.0543" x2="860.5787" y2="956.1472">
		<stop  offset="9.962678e-02" style="stop-color:#5C61FF"/>
		<stop  offset="0.9759" style="stop-color:#15A8FF"/>
	</linearGradient>
	<path style="fill:url(#SVGID_00000008869560713059005010000014699434497585598142_);" d="M810.9,1017.6V933h20.5v81.1
		c0,15.5,12.3,27,29,27c16.7,0,29.3-11.5,29.3-27V933h20.5v84.6c0,24.2-21.3,42.4-49.7,42.4C832.1,1060,810.9,1041.8,810.9,1017.6z"
		/>
	
		<linearGradient id="SVGID_00000124862655445384349200000016990879193098093499_" gradientUnits="userSpaceOnUse" x1="974.1508" y1="1047.0543" x2="974.1508" y2="956.1472">
		<stop  offset="9.962678e-02" style="stop-color:#5C61FF"/>
		<stop  offset="0.9759" style="stop-color:#15A8FF"/>
	</linearGradient>
	<path style="fill:url(#SVGID_00000124862655445384349200000016990879193098093499_);" d="M958.7,951.5v34.7h44.5v18.8h-44.5v34.7
		h51.4v18.6h-71.9V933h71.9v18.6H958.7z"/>
	
		<linearGradient id="SVGID_00000160907489763292457350000000851095837145192321_" gradientUnits="userSpaceOnUse" x1="1067.8712" y1="1047.0543" x2="1067.8712" y2="956.1472">
		<stop  offset="9.962678e-02" style="stop-color:#5C61FF"/>
		<stop  offset="0.9759" style="stop-color:#15A8FF"/>
	</linearGradient>
	<path style="fill:url(#SVGID_00000160907489763292457350000000851095837145192321_);" d="M1025.3,1033.3l17.6-10.7
		c4.4,10.7,14,17.8,26.7,17.8c11.7,0,20.3-6.1,20.3-16.3c0-26.5-59.3-16.3-59.3-57.9c0-22.6,17.8-34.9,37.4-34.9
		c14.8,0,28,6.9,35.9,16.7l-14.4,13.2c-5.6-7.1-13.2-10.9-21.5-10.9c-9.2,0-16.9,4.6-16.9,14.4c0,25.7,59.3,14.8,59.3,59.3
		c0,22.6-18.4,35.9-41,35.9C1049.4,1060,1032.7,1048.9,1025.3,1033.3z"/>
	
		<linearGradient id="SVGID_00000014635479611942828810000007575636912656804525_" gradientUnits="userSpaceOnUse" x1="1159.3979" y1="1047.0543" x2="1159.3979" y2="956.1472">
		<stop  offset="9.962678e-02" style="stop-color:#5C61FF"/>
		<stop  offset="0.9759" style="stop-color:#15A8FF"/>
	</linearGradient>
	<path style="fill:url(#SVGID_00000014635479611942828810000007575636912656804525_);" d="M1202.8,952h-33.2v106.4h-20.3V952H1116
		v-19h86.7V952z"/>
	<path class="st3" d="M1327.8,1058.3h-23l-33.2-52.7h-17.3v52.7h-20.5V933h49.1c20.3,0,36.2,16.3,36.2,36.8
		c0,16.9-11.5,30.7-27.2,34.1L1327.8,1058.3z M1280.3,987.9c10.7,0,18.6-7.3,18.6-18s-7.9-18-18.6-18h-26.1v35.9H1280.3z"/>
	<path class="st3" d="M1409.1,1031.8h-51.2l-9,26.5h-22.2l45.3-125.4h22.8l45.3,125.4H1418L1409.1,1031.8z M1403.2,1013.8
		l-19.6-58.5l-19.6,58.5H1403.2z"/>
	<path class="st3" d="M1547.4,933l-45.3,125.4h-22.8L1433.9,933h22.8l34.1,99.5l33.9-99.5H1547.4z"/>
	<path class="st3" d="M1581.2,951.5v34.7h44.5v18.8h-44.5v34.7h51.4v18.6h-71.9V933h71.9v18.6H1581.2z"/>
	<path class="st3" d="M1767.4,933v125.4H1747l-69.4-93.2v93.2h-20.5V933h20.5l69.6,93v-93H1767.4z"/>
</g>
</svg>
